<?xml version="1.0" encoding="UTF-8" standalone="no"?>
<!-- Created with Inkscape (http://www.inkscape.org/) -->

<svg
   xmlns:dc="http://purl.org/dc/elements/1.1/"
   xmlns:cc="http://creativecommons.org/ns#"
   xmlns:rdf="http://www.w3.org/1999/02/22-rdf-syntax-ns#"
   xmlns:svg="http://www.w3.org/2000/svg"
   xmlns="http://www.w3.org/2000/svg"
   xmlns:xlink="http://www.w3.org/1999/xlink"
   xmlns:sodipodi="http://sodipodi.sourceforge.net/DTD/sodipodi-0.dtd"
   xmlns:inkscape="http://www.inkscape.org/namespaces/inkscape"
   width="512"
   height="512"
   viewBox="0 0 135.46666 135.46667"
   version="1.1"
   id="svg8"
   sodipodi:docname="icon.svg"
   inkscape:export-filename="icon.png"
   inkscape:export-xdpi="48"
   inkscape:export-ydpi="48"
   inkscape:version="0.92.3 (2405546, 2018-03-11)">
  <sodipodi:namedview
     id="base"
     pagecolor="#ffffff"
     bordercolor="#666666"
     borderopacity="1.0"
     inkscape:pageopacity="0.0"
     inkscape:pageshadow="2"
     inkscape:zoom="1"
     inkscape:cx="94.947533"
     inkscape:cy="242.7799"
     inkscape:document-units="px"
     inkscape:current-layer="layer1"
     showgrid="false"
     units="px"
     inkscape:pagecheckerboard="true"
     inkscape:showpageshadow="false"
     inkscape:object-paths="true"
     inkscape:snap-intersection-paths="true"
     inkscape:snap-smooth-nodes="true"
     inkscape:snap-midpoints="true"
     inkscape:object-nodes="true"
     inkscape:window-width="1920"
     inkscape:window-height="1017"
     inkscape:window-x="-8"
     inkscape:window-y="-8"
     inkscape:window-maximized="1"
     inkscape:snap-center="true"
     inkscape:snap-object-midpoints="true"
     showguides="false" />
  <defs
     id="defs2">
    <linearGradient
       id="linearGradient1756"
       inkscape:collect="always">
      <stop
         id="stop1752"
         offset="0"
         style="stop-color:#b495ff;stop-opacity:1" />
      <stop
         id="stop1754"
         offset="1"
         style="stop-color:#723ef2;stop-opacity:1" />
    </linearGradient>
    <linearGradient
       id="linearGradient1750"
       inkscape:collect="always">
      <stop
         id="stop1746"
         offset="0"
         style="stop-color:#b495ff;stop-opacity:1" />
      <stop
         id="stop1748"
         offset="1"
         style="stop-color:#723ef2;stop-opacity:1" />
    </linearGradient>
    <linearGradient
       id="linearGradient1744"
       inkscape:collect="always">
      <stop
         id="stop1740"
         offset="0"
         style="stop-color:#b495ff;stop-opacity:1" />
      <stop
         id="stop1742"
         offset="1"
         style="stop-color:#723ef2;stop-opacity:1" />
    </linearGradient>
    <linearGradient
       id="linearGradient1738"
       inkscape:collect="always">
      <stop
         id="stop1734"
         offset="0"
         style="stop-color:#b495ff;stop-opacity:1" />
      <stop
         id="stop1736"
         offset="1"
         style="stop-color:#723ef2;stop-opacity:1" />
    </linearGradient>
    <linearGradient
       inkscape:collect="always"
       id="linearGradient1722">
      <stop
         style="stop-color:#b495ff;stop-opacity:1"
         offset="0"
         id="stop1718" />
      <stop
         style="stop-color:#723ef2;stop-opacity:1"
         offset="1"
         id="stop1720" />
    </linearGradient>
    <linearGradient
       inkscape:collect="always"
       xlink:href="#linearGradient1722"
       id="linearGradient1724"
       x1="255.03809"
       y1="28.463867"
       x2="255.03809"
       y2="461.79541"
       gradientUnits="userSpaceOnUse" />
    <linearGradient
       inkscape:collect="always"
       xlink:href="#linearGradient1756"
       id="linearGradient1726"
       x1="255.03809"
       y1="28.463867"
       x2="255.03809"
       y2="461.79541"
       gradientUnits="userSpaceOnUse" />
    <linearGradient
       inkscape:collect="always"
       xlink:href="#linearGradient1750"
       id="linearGradient1728"
       x1="255.03809"
       y1="28.463867"
       x2="255.03809"
       y2="461.79541"
       gradientUnits="userSpaceOnUse" />
    <linearGradient
       inkscape:collect="always"
       xlink:href="#linearGradient1744"
       id="linearGradient1730"
       x1="255.03809"
       y1="28.463867"
       x2="255.03809"
       y2="461.79541"
       gradientUnits="userSpaceOnUse" />
    <linearGradient
       inkscape:collect="always"
       xlink:href="#linearGradient1738"
       id="linearGradient1732"
       x1="255.03809"
       y1="28.463867"
       x2="255.03809"
       y2="461.79541"
       gradientUnits="userSpaceOnUse" />
  </defs>
  <metadata
     id="metadata5">
    <rdf:RDF>
      <cc:Work
         rdf:about="">
        <dc:format>image/svg+xml</dc:format>
        <dc:type
           rdf:resource="http://purl.org/dc/dcmitype/StillImage" />
        <dc:title />
      </cc:Work>
    </rdf:RDF>
  </metadata>
  <g
     inkscape:groupmode="layer"
     id="layer2"
     inkscape:label="Background"
     style="display:inline"
     sodipodi:insensitive="true">
    <rect
       style="opacity:1;fill:#ffffff;fill-opacity:1;fill-rule:nonzero;stroke:none;stroke-width:4.23333311;stroke-linecap:butt;stroke-linejoin:miter;stroke-miterlimit:4;stroke-dasharray:none;stroke-dashoffset:0;stroke-opacity:1;paint-order:normal"
       id="rect820"
       width="135.46667"
       height="135.46667"
       x="-0.26458332"
       y="161.73175"
       ry="23.283335"
       transform="translate(0,-161.5333)" />
  </g>
  <g
     inkscape:label="Tank"
     inkscape:groupmode="layer"
     id="layer1"
     transform="translate(0,-161.5333)">
    <g
       id="g1763"
       transform="matrix(1.0487623,0,0,1.0487623,-3.3028326,-8.37924)"
       style="stroke-width:0.95350492">
      <path
         id="path1669"
         transform="matrix(0.26458333,0,0,0.26458333,0,161.5333)"
         d="m 178.07617,176.88867 c -9.11494,0 -16.45117,7.33819 -16.45117,16.45313 v 207.93359 c 0,9.11494 7.33623,16.45313 16.45117,16.45313 h 153.90039 c 9.11495,0 16.45313,-7.33819 16.45313,-16.45313 V 193.3418 c 0,-9.11494 -7.34585,-16.07937 -16.45313,-16.45313 h -42.73242 c -3.324,0 -6,2.676 -6,6 v 54.04883 c 23.09984,10.94279 37.91367,34.71785 37.94727,60.90234 v 84.28711 c 0,3.32398 -2.676,6 -6,6 H 196.80859 c -3.32398,0 -5.99999,-2.67598 -6,-6 v -84.28711 c 0.0314,-25.38172 13.96034,-48.57515 35.99805,-59.9414 v -55.00977 c 0,-3.324 -2.676,-6 -6,-6 z"
         style="opacity:1;fill:url(#linearGradient1732);fill-opacity:1;fill-rule:nonzero;stroke:none;stroke-width:42.90772629;stroke-linecap:butt;stroke-linejoin:miter;stroke-miterlimit:4;stroke-dasharray:none;stroke-dashoffset:0;stroke-opacity:1;paint-order:normal"
         inkscape:connector-curvature="0" />
      <path
         id="rect852"
         transform="matrix(0.26458333,0,0,0.26458333,0,161.5333)"
         d="m 242.22461,28.462891 c -3.31852,0.0063 -5.98828,2.679945 -5.98828,6 V 233.32422 a 64.757802,82.952909 0 0 1 9.02734,-2.74219 64.757802,82.952909 0 0 1 12.91211,-0.84765 64.757802,82.952909 0 0 1 15.63672,3.55273 V 34.462891 c 0,-3.312784 -2.65839,-5.980067 -5.9668,-5.998047 l -25.61523,-0.002 z"
         style="opacity:1;fill:url(#linearGradient1730);fill-opacity:1;fill-rule:nonzero;stroke:none;stroke-width:1.90700972;stroke-linecap:butt;stroke-linejoin:miter;stroke-miterlimit:4;stroke-dasharray:none;stroke-dashoffset:0;stroke-opacity:1;paint-order:normal"
         inkscape:connector-curvature="0" />
      <path
         id="rect890"
         transform="matrix(0.26458333,0,0,0.26458333,0,161.5333)"
         d="m 111.63477,67.777344 c -12.576757,0 -22.699223,10.122462 -22.699223,22.699218 V 440.6543 c 0,12.57679 10.122466,22.69922 22.699223,22.69922 h 36.77148 c 12.57675,0 22.69727,-10.12243 22.69727,-22.69922 v -1.47852 c 0,-3.324 -2.676,-6 -6,-6 h -3.69141 c -8.69692,0 -15.70117,-7.00421 -15.70117,-15.70117 v -251.4043 c 0,-8.6968 7.00425,-15.70117 15.70117,-15.70117 h 1.69141 a 8.0000001,8.0000001 0 0 0 8,-8 V 90.476562 c 0,-12.576756 -10.12052,-22.699218 -22.69727,-22.699218 z"
         style="opacity:1;fill:url(#linearGradient1728);fill-opacity:1;fill-rule:nonzero;stroke:none;stroke-width:3.81401944;stroke-linecap:butt;stroke-linejoin:miter;stroke-miterlimit:4;stroke-dasharray:none;stroke-dashoffset:0;stroke-opacity:1;paint-order:normal"
         inkscape:connector-curvature="0" />
      <path
         id="path903"
         transform="matrix(0.26458333,0,0,0.26458333,0,161.5333)"
         d="m 363.59375,67.777344 c -12.57675,0 -22.69727,10.122462 -22.69727,22.699218 v 51.892578 a 8.0000001,8.0000001 0 0 0 8,8 h 1.69141 c 8.69692,0 15.70117,7.00437 15.70117,15.70117 v 251.4043 c 0,8.69696 -7.00425,15.70117 -15.70117,15.70117 h -3.69141 c -3.324,0 -6,2.676 -6,6 v 1.47852 c 0,12.57679 10.12052,22.69922 22.69727,22.69922 h 36.77148 c 12.57676,0 22.69922,-10.12243 22.69922,-22.69922 V 90.476562 c 0,-12.576756 -10.12246,-22.699218 -22.69922,-22.699218 z"
         style="opacity:1;fill:url(#linearGradient1726);fill-opacity:1;fill-rule:nonzero;stroke:none;stroke-width:3.81401944;stroke-linecap:butt;stroke-linejoin:miter;stroke-miterlimit:4;stroke-dasharray:none;stroke-dashoffset:0;stroke-opacity:1;paint-order:normal"
         inkscape:connector-curvature="0" />
      <path
         id="path1381"
         transform="matrix(0.26458333,0,0,0.26458333,0,161.5333)"
         d="m 256,244.36523 a 53.878068,55.483845 0 0 0 -53.87695,55.48438 h -0.002 v 68.61719 c 0,3.32398 2.67602,6 6,6 h 95.75586 c 3.324,0 6,-2.67602 6,-6 v -68.57618 a 53.878068,55.483845 0 0 0 0.002,-0.041 A 53.878068,55.483845 0 0 0 256,244.36523 Z"
         style="opacity:1;fill:url(#linearGradient1724);fill-opacity:1;fill-rule:nonzero;stroke:none;stroke-width:42.90771866;stroke-linecap:butt;stroke-linejoin:miter;stroke-miterlimit:4;stroke-dasharray:none;stroke-dashoffset:0;stroke-opacity:1;paint-order:normal"
         inkscape:connector-curvature="0" />
    </g>
  </g>
</svg>
